<svg id="freepik_stories-walkie-talkie" xmlns="http://www.w3.org/2000/svg" viewBox="0 0 500 500" style="max-width:600px; height:auto;">
  <style>
    @keyframes floating {
      0%,100% { transform: translateY(0); }
      50% { transform: translateY(-10px); }
    }
    #freepik--walkie-talkie--inject-2 {
      animation: floating 3s ease-in-out infinite;
      transform-origin: center;
    }
  </style>
  <g id="freepik--background-simple--inject-2">
    <path d="M435.83,306.2c-16.53,38.08-42.77,74.66-82.21,94.9-39.45,20.24-92.84,22.56-136.69,12.52-54.47-12.54-92.35-45.67-113.66-90.8-21.32-45.13-26.13-99.42-2.91-145.12,23.23-45.71,74.93-76.35,126.43-80.67,51.49-4.32,102.47,18.47,143.7,50.83,41.23,32.36,73.87,76.25,65.34,130.34C433.8,287.24,436.77,306.03,435.83,306.2Z" fill="#e0f2f1"/>
  </g>
  <g id="freepik--walkie-talkie--inject-2">
    <rect x="223.22" y="161.39" width="77.18" height="183.08" rx="15.74" ry="15.74" fill="#263238"/>
    <rect x="229.64" y="168.57" width="64.32" height="168.72" rx="10.77" ry="10.77" fill="#fafafa"/>
    <rect x="249.69" y="127.77" width="24.23" height="33.62" rx="3.87" ry="3.87" fill="#263238"/>
    <path d="M261.81,127.77v-23.93c0-1.34,1.09-2.43,2.43-2.43h0c1.34,0,2.43,1.09,2.43,2.43v23.93h-4.86Z" fill="#263238"/>
    <rect x="240.89" y="144.56" width="42.83" height="8.37" rx="1.62" ry="1.62" fill="#263238"/>
    <circle cx="261.8" cy="179.73" r="6.58" fill="#42a5f5"/>
    <rect x="241.56" y="201.3" width="40.49" height="47.3" rx="2.91" ry="2.91" fill="#42a5f5"/>
    <rect x="249.15" y="209.6" width="25.31" height="6.16" rx="1.3" ry="1.3" fill="#e3f2fd"/>
    <rect x="249.15" y="219.56" width="25.31" height="6.16" rx="1.3" ry="1.3" fill="#e3f2fd"/>
    <rect x="249.15" y="229.52" width="25.31" height="6.16" rx="1.3" ry="1.3" fill="#e3f2fd"/>
    <rect x="246.9" y="263.45" width="29.81" height="7.05" rx="1.52" ry="1.52" fill="#42a5f5"/>
    <rect x="246.9" y="277.02" width="29.81" height="7.05" rx="1.52" ry="1.52" fill="#42a5f5"/>
    <circle cx="261.8" cy="307.18" r="6.32" fill="#42a5f5"/>
  </g>
</svg>
