<svg class="animated" id="freepik_stories-pastry-chef" xmlns="http://www.w3.org/2000/svg" viewBox="0 0 500 500" version="1.1" xmlns:xlink="http://www.w3.org/1999/xlink" xmlns:svgjs="http://svgjs.com/svgjs"><style>svg#freepik_stories-pastry-chef:not(.animated) .animable {opacity: 0;}svg#freepik_stories-pastry-chef.animated #freepik--background-complete--inject-73 {animation: 1.0s 1 forwards cubic-bezier(.36,-0.01,.5,1.38) slideLeft;animation-delay: 0s;}svg#freepik_stories-pastry-chef.animated #freepik--Plant--inject-73 {animation: 1.0s 1 forwards cubic-bezier(.36,-0.01,.5,1.38) slideRight;animation-delay: 0s;}svg#freepik_stories-pastry-chef.animated #freepik--Character--inject-73 {animation: 1.5s Infinite  linear wind;animation-delay: 0s;}svg#freepik_stories-pastry-chef.animated #freepik--Cake--inject-73 {animation: 0.9s 1 forwards cubic-bezier(.36,-0.01,.5,1.38) slideUp;animation-delay: 0s;}            @keyframes slideLeft {                0% {                    opacity: 0;                    transform: translateX(-30px);                }                100% {                    opacity: 1;                    transform: translateX(0);                }            }                    @keyframes slideRight {                0% {                    opacity: 0;                    transform: translateX(30px);                }                100% {                    opacity: 1;                    transform: translateX(0);                }            }                    @keyframes wind {                0% {                    transform: rotate( 0deg );                }                25% {                    transform: rotate( 1deg );                }                75% {                    transform: rotate( -1deg );                }            }                    @keyframes slideUp {                0% {                    opacity: 0;                    transform: translateY(30px);                }                100% {                    opacity: 1;                    transform: inherit;                }            }        </style><g id="freepik--background-complete--inject-73" class="animable" style="transform-origin: 250px 235.136px;"><g id="ello6m8z06sgo" class="animable" style="transform-origin: 250px 235.136px;"><g id="elsu0stke3a9" class="animable" style="transform-origin: 250px 223.358px;"><g id="elgmx2vs4057b" class="animable" style="transform-origin: 249.333px 192.699px;"><path d="M443.92,330.198h-180.746c-3.232,0-5.862-2.63-5.862-5.862V61.062c0-3.232,2.63-5.862,5.862-5.862h180.746c3.232,0,5.862,2.629,5.862,5.862V324.335c0,3.233-2.63,5.862-5.862,5.862ZM263.174,55.45c-3.095,0-5.612,2.518-5.612,5.612V324.335c0,3.095,2.518,5.612,5.612,5.612h180.746c3.095,0,5.612-2.517,5.612-5.612V61.062c0-3.094-2.518-5.612-5.612-5.612h-180.746Z" style="fill: rgb(224, 224, 224); transform-origin: 353.547px 192.699px;" id="elks6x32raowr" class="animable"></path><path d="M235.493,330.198H54.746c-3.232,0-5.862-2.63-5.862-5.862V61.062c0-3.232,2.629-5.862,5.862-5.862H235.493c3.232,0,5.862,2.629,5.862,5.862V324.335c0,3.233-2.63,5.862-5.862,5.862ZM54.746,55.45c-3.094,0-5.612,2.518-5.612,5.612V324.335c0,3.095,2.518,5.612,5.612,5.612H235.493c3.095,0,5.612-2.517,5.612-5.612V61.062c0-3.094-2.518-5.612-5.612-5.612H54.746Z" style="fill: rgb(224, 224, 224); transform-origin: 145.119px 192.699px;" id="el47185xkvacp" class="animable"></path></g><rect x="0" y="391.267" width="500" height=".25" style="fill: rgb(224, 224, 224); transform-origin: 250px 391.392px;" id="elmo2ci3a9ub" class="animable"></rect></g><rect x="51.672" y="405.531" width="16.06" height=".25" style="fill: rgb(224, 224, 224); transform-origin: 59.702px 405.656px;" id="elbzytefygsuc" class="animable"></rect><rect x="170.352" y="402.821" width="53.53" height=".25" style="fill: rgb(224, 224, 224); transform-origin: 197.117px 402.946px;" id="elxmh6erro77" class="animable"></rect><rect x="68.732" y="414.821" width="36.25" height=".25" style="fill: rgb(224, 224, 224); transform-origin: 86.857px 414.946px;" id="elyyz3xk2b4k" class="animable"></rect><rect x="378.352" y="402.691" width="43.19" height=".25" style="fill: rgb(224, 224, 224); transform-origin: 399.947px 402.816px;" id="elet0pmnn1f6e" class="animable"></rect><rect x="430.452" y="402.691" width="6.33" height=".25" style="fill: rgb(224, 224, 224); transform-origin: 433.617px 402.816px;" id="el2whnfuz9ahd" class="animable"></rect><rect x="316.212" y="408.921" width="53.89" height=".25" style="fill: rgb(224, 224, 224); transform-origin: 343.157px 409.046px;" id="elpwdhu004o4" class="animable"></rect></g><g id="freepik--freepik--background-complete--inject-3--inject-73" class="animable" style="transform-origin: 252.482px 229.657px;"><rect x="60.104" y="67.923" width="227.333" height="110.295" style="fill: rgb(240, 240, 240); transform-origin: 173.77px 123.071px;" id="elkfsvshpkyzl" class="animable"></rect><rect x="287.429" y="67.932" width="15.101" height="110.295" style="fill: rgb(230, 230, 230); transform-origin: 294.979px 123.079px;" id="el0tcw5cj82q6e" class="animable"></rect><rect x="224.581" y="67.932" width="1.084" height="110.295" style="fill: rgb(230, 230, 230); transform-origin: 225.123px 123.079px;" id="elxs2j8rb25a" class="animable"></rect><rect x="180.255" y="67.932" width="1.084" height="110.295" style="fill: rgb(230, 230, 230); transform-origin: 180.797px 123.079px;" id="el6zvwqqmvoy7" class="animable"></rect><rect x="119.637" y="67.932" width="1.084" height="110.295" style="fill: rgb(230, 230, 230); transform-origin: 120.179px 123.079px;" id="elnixpo62v9ej" class="animable"></rect><ellipse cx="110.328" cy="123.075" rx="2.892" ry="3.545" style="fill: rgb(230, 230, 230); transform-origin: 110.328px 123.075px;" id="el58d9o0eiwvd" class="animable"></ellipse><path d="M130.031,119.53c1.597,0,2.891,1.587,2.891,3.545s-1.295,3.545-2.891,3.545-2.892-1.587-2.892-3.545,1.295-3.545,2.892-3.545Z" style="fill: rgb(230, 230, 230); transform-origin: 130.031px 123.075px;" id="el62dag06k7m5" class="animable"></path><ellipse cx="215.271" cy="123.075" rx="2.892" ry="3.545" style="fill: rgb(230, 230, 230); transform-origin: 215.271px 123.075px;" id="eld6y5wttgv0e" class="animable"></ellipse><path d="M232.348,163.356h48.408c1.324,0,2.398,1.167,2.398,2.606v1.868c0,1.439-1.073,2.606-2.398,2.606h-48.408c-1.324,0-2.398-1.167-2.398-2.606v-1.868c0-1.439,1.074-2.606,2.398-2.606Z" style="fill: rgb(230, 230, 230); transform-origin: 256.552px 166.896px;" id="el5xjsf9spilp" class="animable"></path><rect x="56.067" y="279.207" width="238.156" height="112.185" style="fill: rgb(240, 240, 240); transform-origin: 175.145px 335.299px;" id="el7kfggwf6w62" class="animable"></rect><rect x="294.213" y="279.207" width="15.82" height="112.185" style="fill: rgb(230, 230, 230); transform-origin: 302.123px 335.299px;" id="elv91c1sto96p" class="animable"></rect><rect x="120.78" y="279.197" width="1.136" height="112.185" style="fill: rgb(230, 230, 230); transform-origin: 121.348px 335.289px;" id="elibh7gkhj8gr" class="animable"></rect><rect x="167.216" y="279.197" width="1.136" height="112.185" style="fill: rgb(230, 230, 230); transform-origin: 167.784px 335.289px;" id="elltus9g533a9" class="animable"></rect><rect x="230.719" y="279.197" width="1.136" height="112.185" style="fill: rgb(230, 230, 230); transform-origin: 231.287px 335.289px;" id="elqpqpc0l845" class="animable"></rect><path d="M238.569,292.33c.199-1.677,1.719-2.874,3.396-2.675,1.677,.199,2.874,1.719,2.675,3.396-.182,1.537-1.485,2.695-3.033,2.697-1.78-.109-3.138-1.636-3.038-3.417Z" style="fill: rgb(230, 230, 230); transform-origin: 241.613px 292.691px;" id="elsfoqc5d182" class="animable"></path><path d="M220.966,288.913c1.673,0,3.029,1.53,3.029,3.417s-1.356,3.417-3.029,3.417-3.029-1.53-3.029-3.417,1.356-3.417,3.029-3.417Z" style="fill: rgb(230, 230, 230); transform-origin: 220.966px 292.33px;" id="el148v47bbtmq" class="animable"></path><path d="M158.932,288.913c1.673,0,3.029,1.53,3.029,3.417s-1.356,3.417-3.029,3.417-3.029-1.53-3.029-3.417,1.356-3.417,3.029-3.417Z" style="fill: rgb(230, 230, 230); transform-origin: 158.932px 292.33px;" id="el33kjnoj9xvk" class="animable"></path><rect x="60.564" y="286.715" width="55.736" height="2.207" rx="1.044" ry="1.044" style="fill: rgb(230, 230, 230); transform-origin: 88.432px 287.818px;" id="ellkvhhib7p8c" class="animable"></rect><rect x="60.564" y="293.254" width="55.736" height="2.207" rx="1.044" ry="1.044" style="fill: rgb(230, 230, 230); transform-origin: 88.432px 294.358px;" id="el11cr3w3wqh8" class="animable"></rect><rect x="54.321" y="274.838" width="241.49" height="4.368" style="fill: rgb(230, 230, 230); transform-origin: 175.066px 277.022px;" id="eluj86ml5yt4h" class="animable"></rect><rect x="295.811" y="274.829" width="15.867" height="4.368" style="fill: rgb(224, 224, 224); transform-origin: 303.744px 277.013px;" id="elphtj35j92w" class="animable"></rect><rect x="325.605" y="90.55" width="104.664" height="290.892" style="fill: rgb(224, 224, 224); transform-origin: 377.937px 235.996px;" id="el6ve6w8nfqfv" class="animable"></rect><rect x="321.518" y="88.138" width="52.338" height="290.892" style="fill: rgb(240, 240, 240); transform-origin: 347.687px 233.584px;" id="eliov5jpp45f" class="animable"></rect><rect x="375.546" y="88.138" width="52.338" height="290.892" style="fill: rgb(240, 240, 240); transform-origin: 401.715px 233.584px;" id="elpwuysq50zq9" class="animable"></rect><rect x="378.95" y="178.796" width="4.386" height="109.576" style="fill: rgb(224, 224, 224); transform-origin: 381.143px 233.584px;" id="elt8amrd6go9c" class="animable"></rect><rect x="366.066" y="178.796" width="4.386" height="109.576" style="fill: rgb(224, 224, 224); transform-origin: 368.259px 233.584px;" id="el2pv3xgovujy" class="animable"></rect><rect x="430.269" y="90.538" width="20.374" height="290.892" style="fill: rgb(224, 224, 224); transform-origin: 440.456px 235.984px;" id="elqdef1nsrm2b" class="animable"></rect><rect x="330.099" y="381.442" width="117.236" height="9.831" style="fill: rgb(224, 224, 224); transform-origin: 388.717px 386.358px;" id="elrzc5xuvpe4" class="animable"></rect></g></g><g id="freepik--Shadow--inject-73" class="animable" style="transform-origin: 248.723px 456.524px;"><path d="M457.598,456.524c0,3.387-93.516,6.132-208.875,6.132s-208.875-2.745-208.875-6.132,93.516-6.132,208.875-6.132,208.875,2.745,208.875,6.132Z" style="fill: rgb(245, 245, 245); transform-origin: 248.723px 456.524px;" id="eli6ouryeitwf" class="animable"></path></g><g id="freepik--Speech_Bubble--inject-73" class="animable" style="transform-origin: 274.796px 101.33px;"><g id="elt6vo7gm0xvs" class="animable" style="transform-origin: 274.796px 101.33px;"><path d="M292.333,84.713c9.179,10.51,8.099,26.471-2.411,35.649-10.079,8.802-25.167,8.164-34.483-1.171l-7.962,.469,3.185-7.105c-4.982-10.034-2.813-22.539,6.021-30.253,10.51-9.179,26.471-8.099,35.65,2.411Z" style="fill: rgb(64, 123, 255); transform-origin: 273.023px 101.33px;" id="el9dnvkxvv1g4" class="animable"></path><path d="M301.74,97.934c-.203,0-.37-.162-.375-.366-.191-8.056-4.769-15.957-11.661-20.13-.177-.107-.233-.338-.126-.515s.338-.232,.515-.126c7.105,4.303,11.825,12.449,12.022,20.754,.005,.207-.159,.379-.366,.384h-.009Z" style="fill: rgb(64, 123, 255); transform-origin: 295.819px 87.3391px;" id="elug39njht3t" class="animable"></path><path d="M301.293,105.413c-.038,0-.077-.006-.116-.019-.196-.064-.305-.275-.24-.473,.369-1.136,.503-2.366,.387-3.557-.021-.206,.131-.39,.337-.41,.203-.025,.39,.13,.409,.336,.127,1.293-.019,2.629-.42,3.863-.052,.158-.198,.259-.356,.259Z" style="fill: rgb(64, 123, 255); transform-origin: 301.516px 103.182px;" id="elkuytirowsb" class="animable"></path><path d="M282.64,98.855c-.14-1.265-.749-2.452-1.594-3.404-.828-.933-1.91-1.67-3.127-1.94-1.294-.286-2.701-.015-3.795,.731-.651,.444-1.186,1.052-1.556,1.747-.359-.619-.85-1.162-1.439-1.569-1.089-.754-2.495-1.035-3.79-.757-1.22,.261-2.307,.991-3.141,1.918-.851,.946-1.469,2.129-1.618,3.393-.187,1.584,.114,3.319,.93,4.688,.863,1.446,2.261,2.617,3.7,3.491,2.42,1.469,5.607,3.31,5.607,3.31,0,0,2.706-2.009,5.137-3.462,1.445-.864,2.852-2.024,3.724-3.464,.826-1.364,1.139-3.097,.963-4.682Z" style="fill: rgb(255, 255, 255); transform-origin: 272.607px 101.931px;" id="el1t3t0lx43tp" class="animable"></path></g></g><g id="freepik--Plant--inject-73" class="animable" style="transform-origin: 375.655px 397.136px;"><g id="elg0lk0h2p2cp" class="animable" style="transform-origin: 375.655px 397.136px;"><g id="elc4vtftitock" class="animable" style="transform-origin: 373.459px 388.927px;"><path d="M372.598,421.097c-.014-.424-1.441-42.546-8.292-49.209-6.664-6.478-14.312-.241-14.634,.027l-.687-.823c.087-.073,8.718-7.119,16.068,.027,7.159,6.962,8.56,48.192,8.616,49.944l-1.071,.034Z" style="fill: rgb(38, 50, 56); transform-origin: 361.327px 394.508px;" id="el4n4f3cwdgz" class="animable"></path><path d="M373.186,429.375c-.049-.504-4.682-50.568,13.601-71.551l.808,.704c-17.98,20.636-13.39,70.244-13.342,70.743l-1.067,.105Z" style="fill: rgb(38, 50, 56); transform-origin: 380.111px 393.6px;" id="el508kq4d6tj3" class="animable"></path><path d="M372.51,424.08l-1.07-.071c.038-.568,3.578-56.916-9.833-69.251l.726-.79c13.787,12.682,10.331,67.773,10.177,70.112Z" style="fill: rgb(38, 50, 56); transform-origin: 367.306px 389.024px;" id="el57n5bawty25" class="animable"></path><path d="M374.255,424.048l-1.072-.008c.013-1.552,.442-38.061,10.813-44.004,2.305-1.323,4.563-1.543,6.71-.655,6.271,2.594,9.378,13.754,9.508,14.228l-1.034,.283c-.03-.111-3.099-11.128-8.884-13.52-1.824-.753-3.763-.554-5.766,.594-9.841,5.639-10.271,42.709-10.274,43.083Z" style="fill: rgb(38, 50, 56); transform-origin: 386.699px 401.448px;" id="elmbgkk5cyzac" class="animable"></path><path d="M370.217,424.075l-1.07-.061c.016-.288,1.564-28.851-6.144-38.915-1.868-2.438-3.895-3.6-6.037-3.45-5.051,.353-9.286,7.744-9.328,7.818l-.934-.528c.184-.325,4.56-7.966,10.186-8.36,2.517-.179,4.863,1.125,6.965,3.868,7.95,10.379,6.431,38.438,6.363,39.627Z" style="fill: rgb(38, 50, 56); transform-origin: 358.54px 402.319px;" id="elyhz035usesl" class="animable"></path><path d="M371.907,427.96c-.21-2.771-5.039-67.99,3.458-79.482l.862,.637c-8.262,11.175-3.301,78.089-3.25,78.763l-1.069,.082Z" style="fill: rgb(38, 50, 56); transform-origin: 373.289px 388.219px;" id="elip5kr8cyb7c" class="animable"></path></g><path d="M394.556,382.983s-5.423,2.004-3.582,6.316c5.187,12.149,17.551,13.444,17.551,13.444,0,0,5.801-9.184,1.046-16.317-6.556-9.834-14.877-6.618-15.015-3.443Z" style="fill: rgb(64, 123, 255); transform-origin: 401.018px 391.284px;" id="elvs5bcjm2m5a" class="animable"></path><path d="M370.857,377.546s5.428-.227,5.737,4.451c.308,4.678-11.759,17.62-11.759,17.62,0,0-8.612-3.113-6.762-14.787,1.85-11.674,11.436-10.162,12.785-7.284Z" style="fill: rgb(64, 123, 255); transform-origin: 367.206px 387.56px;" id="eltcx4vfdq17b" class="animable"></path><path d="M373.489,350.283s-2.28-.28-3.137-2.332c-2.557-6.12,6.231-12.719,17.982-9.232,0,0,.311,10.34-6.012,14.419-6.323,4.078-8.833-2.855-8.833-2.855Z" style="fill: rgb(64, 123, 255); transform-origin: 379.122px 346.087px;" id="elz3omis5fg09" class="animable"></path><path d="M361.662,357.174s-.604,2.917-3.347,3.808c-8.182,2.657-15.781-9.404-10.027-24.224,0,0,13.4,.694,18.001,9.301,4.601,8.607-4.627,11.115-4.627,11.115Z" style="fill: rgb(64, 123, 255); transform-origin: 356.925px 349.055px;" id="eliit5101zuv" class="animable"></path><path d="M353.352,382.351s1.891-2.594-.967-2.848c-2.858-.254-15.231,5.29-11.978,17.982,0,0,15.914-5.191,16.466-10.505,.552-5.314-3.522-4.629-3.522-4.629Z" style="fill: rgb(64, 123, 255); transform-origin: 348.395px 388.49px;" id="ely7ufj3rclg" class="animable"></path><path d="M387.282,354.824s.715-2.355,3.41-3.339c2.695-.984,12.709-.366,12.847,12.735,0,0-15.404,2.56-17.31-2.431-1.907-4.99,1.053-6.965,1.053-6.965Z" style="fill: rgb(64, 123, 255); transform-origin: 394.564px 358.024px;" id="elz5rmbe1p5ol" class="animable"></path><path d="M378.967,365.71s1.035-1.796,3.015-.835c1.979,.961,7.814,6.965,2.25,14.212,0,0-10.339-6.216-9.494-10.579,.779-4.021,4.229-2.798,4.229-2.798Z" style="fill: rgb(64, 123, 255); transform-origin: 380.632px 371.84px;" id="eltzphetfgm9s" class="animable"></path><path d="M353.638,368.871s1.493-1.957-.693-2.199c-2.187-.242-11.986,2.373-9.704,12.156,0,0,11.938-.897,12.45-4.961,.512-4.064-2.053-4.996-2.053-4.996Z" style="fill: rgb(64, 123, 255); transform-origin: 349.329px 372.742px;" id="eldhm7q7vbh8o" class="animable"></path><polygon points="390.305 457.514 356.061 457.514 352.367 420.022 393.999 420.022 390.305 457.514" style="fill: rgb(38, 50, 56); transform-origin: 373.183px 438.768px;" id="elndf4yo5ysv8" class="animable"></polygon><rect x="350.539" y="415.885" width="45.289" height="8.273" style="fill: rgb(38, 50, 56); transform-origin: 373.183px 420.022px;" id="elbjxo49vn3sl" class="animable"></rect></g></g><g id="freepik--Character--inject-73" class="animable" style="transform-origin: 185.042px 261.548px;"><g id="elt9hgqjifvhf" class="animable" style="transform-origin: 185.042px 261.548px;"><g id="elcrbgd8f2zl" class="animable" style="transform-origin: 206.17px 121.817px;"><path d="M236.133,143.564c-1.483-3.16-4.398-5.444-6.032-8.528-1.823-3.439-1.883-7.523-1.657-11.409,.226-3.886,2.755-11.382-5.092-15.187-3.503-1.699-8.825-6.136-12.644-6.891l-22.832,14.073c-2.035,3.83-7.168,14.724-7.943,18.209-.775,3.485-.648,12.355,.123,15.842,1.457,6.586,6.813-2.035,10.211,3.791,3.146,5.394,6.7,10.644,11.383,14.774,4.683,4.13,10.622,7.085,16.865,7.24,6.242,.155,12.715-2.833,15.818-8.252,2.192-3.828,2.565-8.395,2.879-12.795,.262-3.673,.486-7.533-1.079-10.866Z" style="fill: rgb(38, 50, 56); transform-origin: 208.405px 138.516px;" id="elgrhe4jzhst" class="animable"></path><g id="elwlu16nn3ez" class="animable" style="transform-origin: 204.212px 133.013px;"><path d="M183.143,148.677s3.586,3.191,7.485,9.019c.812,1.214,1.766,2.334,2.827,3.338,2.862,2.71,5.637,4.576,6.913,3.187,.283-.305,.531-.65,.747-1.026,1.453-2.514,2.218-6.401,.511-8.749-1.925-2.648-2.649-4.658-1.469-7.194,.651-1.443,1.627-2.848,2.683-4.184l-2.377-2.5-7.322-13.063c-.577,6.608-3.62,18.936-9.999,21.171Z" style="fill: rgb(253, 187, 181); transform-origin: 192.991px 146.099px;" id="ellwddslb3n0a" class="animable"></path><g id="el2f7lyqeazpr"><path d="M199.913,147.815c-2.335-2.432-4.604-6.157-3.327-9.342,.547-1.339,1.208-2.568,1.772-3.316l3.596,9.084c-.801,1.082-1.193,1.836-2.041,3.574Z" style="opacity: 0.2; transform-origin: 199.086px 141.486px;" class="animable"></path></g><path d="M194.373,115.403c-1.932,10.702-2.973,15.18,.899,22.143,5.823,10.474,19.054,11.154,24.063,1.402,4.508-8.778,6.911-24.805-2.122-32.027-8.9-7.115-20.907-2.221-22.84,8.482Z" style="fill: rgb(253, 187, 181); transform-origin: 207.999px 124.714px;" id="elgf15xdwtsy" class="animable"></path><path d="M206.952,122.542c-.254,1.119,.093,2.191,.775,2.395,.682,.204,1.441-.537,1.696-1.655,.254-1.119-.093-2.191-.775-2.395-.682-.204-1.441,.537-1.696,1.656Z" style="fill: rgb(38, 50, 56); transform-origin: 208.187px 122.912px;" id="el2ij70xjunuq" class="animable"></path><path d="M217.254,125.359c-.244,1.085,.11,2.129,.79,2.333,.681,.204,1.43-.511,1.674-1.595,.244-1.084-.11-2.129-.79-2.332-.68-.204-1.43,.51-1.674,1.595Z" style="fill: rgb(38, 50, 56); transform-origin: 218.486px 125.728px;" id="elwrzhbt53fi" class="animable"></path><path d="M205.838,118.093c.129,.052,.274,.05,.404-.016,2.02-1.044,3.686-.02,3.705-.008,.247,.152,.56,.076,.697-.181,.136-.257,.045-.591-.203-.749-.087-.054-2.177-1.341-4.684-.045-.25,.129-.344,.454-.211,.726,.065,.13,.17,.225,.291,.273Z" style="fill: rgb(38, 50, 56); transform-origin: 208.096px 117.332px;" id="ellmdz9no3pa8" class="animable"></path><path d="M222.165,121.08c.115-.006,.224-.06,.302-.162,.16-.21,.127-.542-.073-.742-2.014-2.001-4.065-1.471-4.152-1.447-.244,.067-.377,.349-.296,.631,.08,.282,.344,.456,.588,.39,.08-.022,1.677-.406,3.279,1.185,.104,.103,.232,.15,.353,.144Z" style="fill: rgb(38, 50, 56); transform-origin: 220.245px 119.864px;" id="elxhi01cu32" class="animable"></path><path d="M214.594,124.076s.552,4.359,1.72,7.304c.204,.515-.167,1.081-.719,1.127-1.42,.118-2.81-.729-2.81-.729l1.809-7.702Z" style="fill: rgb(255, 131, 131); transform-origin: 214.578px 128.297px;" id="elddk3c7e35rh" class="animable"></path><path d="M208.242,120.823l2.552,.097s-1.804,1.424-2.552-.097Z" style="fill: rgb(38, 50, 56); transform-origin: 209.518px 121.174px;" id="elfyb7fqyoeqs" class="animable"></path><path d="M218.675,123.721l2.552,.097s-1.804,1.424-2.552-.097Z" style="fill: rgb(38, 50, 56); transform-origin: 219.951px 124.072px;" id="eldj8sa2eng9k" class="animable"></path><path d="M196.998,120.011s7.627-6.615,9.165-13.255c0,0,11.049,.165,16.23,13.419,.825,2.111,.799,5.244,1.275,8.084,0,0,7.463-19.315-9.709-25.82-17.145-6.495-27.449,17.285-21.168,27.984,0,0-.531-6.264,4.206-10.413Z" style="fill: rgb(38, 50, 56); transform-origin: 208.108px 115.878px;" id="el8d41ksbyro8" class="animable"></path><path d="M188.861,123.036c.64,2.482,2.272,4.38,3.981,5.349,2.571,1.457,5.227-2.59,5.05-5.619-.16-2.727-2.418-5.128-5.257-5.328-2.797-.198-4.506,2.76-3.774,5.597Z" style="fill: rgb(253, 187, 181); transform-origin: 193.296px 123.06px;" id="el9iwq9cdlsne" class="animable"></path><g id="elrwjlipxhx5c"><path d="M194.854,124.346c-.017,0-.034-.001-.051-.005-.135-.028-.223-.16-.194-.295,.195-.948,.003-1.956-.528-2.765-.531-.81-1.378-1.387-2.326-1.585-.135-.028-.222-.161-.193-.296,.028-.135,.159-.225,.296-.193,1.076,.225,2.038,.881,2.641,1.8,.603,.918,.821,2.063,.599,3.14-.024,.118-.128,.2-.244,.2Z" style="opacity: 0.2; transform-origin: 193.37px 121.774px;" class="animable"></path></g><path d="M210.341,133.53c-.853-.7-2.383-2.483-3.636-3.202-.73-.419-1.663,.095-1.9,.903h0c-.027,.092-.048,.185-.056,.281-.115,1.294,.461,2.946,2.864,4.78,.18,.145,.367,.281,.554,.416,0,0,1.81-1.739,3.014-2.516,0,0-.337-.24-.839-.662Z" style="fill: rgb(38, 50, 56); transform-origin: 207.958px 133.443px;" id="el13kda0atpwep" class="animable"></path><path d="M211.17,134.165l-.908,.719c-2.343-1.797-3.751-3.377-3.942-4.65,.44-.271,3.084,2.419,3.084,2.419,.379,.406,.554,.518,1.766,1.512Z" style="fill: rgb(255, 255, 255); transform-origin: 208.745px 132.549px;" id="elb7mlcs41vcj" class="animable"></path><path d="M207.612,136.291c-2.492-1.902-3.019-3.608-2.849-4.922,.824,.681,1.742,1.594,2.348,2.66,.467,.814,.558,1.59,.5,2.262Z" style="fill: rgb(253, 80, 78); transform-origin: 206.18px 133.83px;" id="elg6vhg80stc9" class="animable"></path></g><path d="M189.302,113.391s.129-11.415-3.754-14.767c0,0-14.498-3.244-9.595-14.061,4.903-10.817,12.182-6.375,12.182-6.375,0,0,.606-7.145,8.772-9.62,8.166-2.475,15.018,6.836,15.018,6.836,0,0,10.259-1.652,12.472,3.991,3.395,8.661-5.106,13.377-5.106,13.377,0,0-.119,9.405,2.238,14.401,0,0-13.432-1.351-20.337,1.406-6.905,2.757-11.89,4.812-11.89,4.812Z" style="fill: rgb(64, 123, 255); transform-origin: 200.069px 90.7702px;" id="eltfm5geh404i" class="animable"></path><g id="elmt1dc1z59sg"><path d="M189.302,113.391s.129-11.415-3.754-14.767c0,0-14.498-3.244-9.595-14.061,4.903-10.817,12.182-6.375,12.182-6.375,0,0,.606-7.145,8.772-9.62,8.166-2.475,15.018,6.836,15.018,6.836,0,0,10.259-1.652,12.472,3.991,3.395,8.661-5.106,13.377-5.106,13.377,0,0-.119,9.405,2.238,14.401,0,0-13.432-1.351-20.337,1.406-6.905,2.757-11.89,4.812-11.89,4.812Z" style="fill: rgb(255, 255, 255); opacity: 0.7; transform-origin: 200.069px 90.7702px;" class="animable"></path></g><g id="elj9db44o33kg"><path d="M208.242,90.77s.414,3.082-5.462,6.247c-5.876,3.164-11.845-1.303-11.845-1.303-1.24,2.512-2.747,4.284-5.387,2.911,3.131,2.702,3.653,10.644,3.738,13.62l5.713-1.176c1.772-.717,3.869-1.562,6.192-2.49,3.88-1.549,9.82-1.801,14.281-1.725l5.479-1.128c-1.758-5.166-1.661-12.954-1.661-12.954-6.118,.781-11.048-2.002-11.048-2.002Z" style="fill: rgb(64, 123, 255); opacity: 0.4; transform-origin: 203.25px 101.507px;" class="animable"></path></g><path d="M189.519,115.398c9.112-8.016,21.825-8.333,33.261-6.963,2.924,.35,3.501-4.19,.571-4.541-12.586-1.508-26.633-.914-36.64,7.889-.928,.816-1.194,2.193-.404,3.211,.724,.932,2.279,1.223,3.211,.404h0Z" style="fill: rgb(64, 123, 255); transform-origin: 205.561px 109.565px;" id="el7ln4m31rpkh" class="animable"></path><g id="elrxru27cwmoi"><g style="opacity: 0.7; transform-origin: 205.561px 109.565px;" class="animable"><path d="M189.519,115.398c9.112-8.016,21.825-8.333,33.261-6.963,2.924,.35,3.501-4.19,.571-4.541-12.586-1.508-26.633-.914-36.64,7.889-.928,.816-1.194,2.193-.404,3.211,.724,.932,2.279,1.223,3.211,.404h0Z" style="fill: rgb(255, 255, 255); transform-origin: 205.561px 109.565px;" id="eluxnzwtwvu79" class="animable"></path></g></g></g><g id="elr1fy2y7nwp9" class="animable" style="transform-origin: 181.596px 337.725px;"><g id="elhmpj93wrc8v" class="animable" style="transform-origin: 154.765px 446.833px;"><path d="M142.997,454.355l1.94-.003,.539-2.414,6.42,2.922h16.267s2.587-2.622-5.161-4.711c-.352-.096-.718-.232-1.097-.423-4.131-1.953-10.01-8.548-10.01-8.548h-8.926s-.311,.451-.731,1.297c-.975,1.98-2.659,6.135,.759,11.88Z" style="fill: rgb(64, 123, 255); transform-origin: 154.765px 448.019px;" id="el5f3damv43f" class="animable"></path><path d="M142.238,442.475v.027c1.179-1.324,6.542,4.493,10.47,6.473,3.508,1.762,7.45,2.54,9.197,.751-4.131-1.953-10.691-10.921-10.691-10.921l-7.172,.219s-1.385,2.605-1.805,3.451Z" style="fill: rgb(253, 187, 181); transform-origin: 152.071px 444.774px;" id="elsdhpnorrk2g" class="animable"></path></g><path d="M176.314,222.16s-12.202,84.359-13.622,103.352c0,0-3.934,92.509-2.583,115.666l-20.416,.441s-11.308-69.781-5.59-114.561c.496-5.838-4.712-43.912-5.535-59.079-1.981-36.49,12.826-46.515,12.826-46.515l34.92,.697Z" style="fill: rgb(38, 50, 56); transform-origin: 152.35px 331.541px;" id="elczipiyn2duc" class="animable"></path><g id="elqdlrweve1z" class="animable" style="transform-origin: 221.009px 446.875px;"><path d="M209.223,454.314l1.94,.007,.551-2.411,6.405,2.954,16.267,.082s2.6-2.609-5.137-4.737c-.352-.097-.717-.236-1.095-.429-4.121-1.973-9.967-8.598-9.967-8.598l-8.926-.045s-.314,.449-.738,1.293c-.985,1.975-2.69,6.122,.699,11.884Z" style="fill: rgb(64, 123, 255); transform-origin: 221.009px 448.041px;" id="eluu7xvz6az6" class="animable"></path><path d="M208.524,442.43v.027c1.185-1.318,6.519,4.525,10.437,6.525,3.499,1.779,7.437,2.577,9.193,.797-4.121-1.973-10.636-10.975-10.636-10.975l-7.172,.183s-1.398,2.598-1.822,3.442Z" style="fill: rgb(253, 187, 181); transform-origin: 218.339px 444.792px;" id="elislb685fpv" class="animable"></path></g><path d="M192.611,220.505s7.052,84.945,9.933,103.772c0,0,16.939,91.03,23.456,113.292l-19.796,5.014s-26.688-65.46-31.172-110.381c-.827-5.8-14.452-41.732-18.66-56.327-10.124-35.113,2.054-48.207,2.054-48.207l34.185-7.162Z" style="fill: rgb(38, 50, 56); transform-origin: 189.175px 331.544px;" id="el8dl3psg44rg" class="animable"></path><g id="elle6r190ft4c"><polygon points="180.684 363.87 209.979 363.167 209.104 358.676 179.676 359.525 180.684 363.87" style="opacity: 0.2; transform-origin: 194.827px 361.273px;" class="animable"></polygon></g><g id="elhcfjpw6c0xr"><path d="M141.677,220.505s-5.102,135.407-2.388,139.021,21.981,3.641,21.981,3.641v-5.45l-5.847-133.522-13.746-3.689Z" style="opacity: 0.2; transform-origin: 149.882px 291.836px;" class="animable"></path></g></g><path d="M194.768,206.672c-.641,0-1.229-.484-1.615-.899-.273,.26-.559,.342-.784,.355-.609,.028-1.165-.4-1.541-.803-.321,.357-.862,.711-1.755,.735h-.025c-1.503,0-4.863-3.551-6.049-4.861-1.305-.187-7.163-1.209-6.943-4.441,.219-3.201,6.385-7.664,7.087-8.162l.114-.081,8.58-.615,.127,.067c.613,.324,6.018,3.193,7.062,4.167,1.306,1.217,1.843,10.253,1.018,12.539-.318,.881-.83,1.122-1.203,1.168-.833,.092-1.672-.681-2.198-1.298-.136,.27-.323,.648-.583,1.179-.36,.736-.851,.922-1.198,.948-.031,.002-.062,.003-.094,.003Zm-1.715-2.707l.486,.7c.304,.438,.897,1.021,1.248,1.006,.157-.012,.29-.219,.374-.39,.895-1.83,.977-1.935,1.008-1.975l.423-.541,.385,.569c.452,.669,1.309,1.567,1.74,1.513,.189-.023,.333-.368,.386-.515,.881-2.441-.042-10.798-.759-11.467-.782-.729-4.999-3.033-6.722-3.948l-8.014,.575c-1.877,1.352-6.4,5.069-6.555,7.334-.145,2.119,4.468,3.177,6.257,3.406l.184,.024,.125,.138c2.022,2.25,4.662,4.667,5.418,4.667h.009c1.003-.027,1.223-.672,1.245-.746l.307-1.036,.594,.896c.27,.413,.832,.966,1.116,.955,.157-.01,.299-.255,.37-.4l.374-.765Z" style="fill: rgb(64, 123, 255); transform-origin: 188.244px 197.287px;" id="el2n69i9kaqxi" class="animable"></path><g id="elwu8jt60i29k" class="animable" style="transform-origin: 164.047px 197.295px;"><path d="M144.673,248.934l-20.151-2.819s17.114-30.663,29.972-51.252c12.858-20.589,16.416-49.212,16.416-49.212h11.577l5.763-5.142,14.591,9.888,.33,5.844s1.703,26.038-1.91,38.481c-3.613,12.443-5.511,59.359-5.511,59.359l-51.077-5.146Z" style="fill: rgb(64, 123, 255); transform-origin: 164.047px 197.295px;" id="ellh73hd1dgsf" class="animable"></path><g id="elgdxtjaabz75"><path d="M144.673,248.934l-20.151-2.819s17.114-30.663,29.972-51.252c12.858-20.589,16.416-49.212,16.416-49.212h11.577l5.763-5.142,14.591,9.888,.33,5.844s1.703,26.038-1.91,38.481c-3.613,12.443-5.511,59.359-5.511,59.359l-51.077-5.146Z" style="fill: rgb(255, 255, 255); opacity: 0.6; transform-origin: 164.047px 197.295px;" class="animable"></path></g><g id="ely17wrfmub0q"><polygon points="163.296 176.307 168.3 173.758 161.412 181.178 163.296 176.307" style="opacity: 0.2; transform-origin: 164.856px 177.468px;" class="animable"></polygon></g><path d="M199.363,178.579c-.134,0-.245-.105-.25-.24l-.867-22.197c-.001-.042,.008-.085,.027-.123l3.277-6.46c.063-.124,.212-.171,.336-.11,.123,.062,.172,.213,.11,.336l-3.248,6.402,.865,22.132c.005,.138-.102,.254-.24,.26h-.01Z" style="fill: rgb(38, 50, 56); transform-origin: 200.134px 164.001px;" id="elzddxn68tz6q" class="animable"></path><path d="M198.564,151.282c0,.653-.529,1.182-1.182,1.182s-1.182-.529-1.182-1.182,.529-1.182,1.182-1.182,1.182,.529,1.182,1.182Z" style="fill: rgb(38, 50, 56); transform-origin: 197.382px 151.282px;" id="elastce9hjknn" class="animable"></path><circle cx="195.66" cy="160.448" r="1.182" style="fill: rgb(38, 50, 56); transform-origin: 195.66px 160.448px;" id="elzl6hzuwsrxi" class="animable"></circle><circle cx="195.66" cy="168.227" r="1.182" style="fill: rgb(38, 50, 56); transform-origin: 195.66px 168.227px;" id="el7sh2hd0k2kc" class="animable"></circle></g><g id="elrvpl5u23pc"><path d="M150.808,201.018l26.49,3.568s7.697,4.39,10.95,3.921c3.254-.47,5.954-2.917,5.954-2.917l-11.06-14.458-28.32,3.196-4.015,6.69Z" style="opacity: 0.2; transform-origin: 172.504px 199.837px;" class="animable"></path></g><g id="elkacqgdj8uoj" class="animable" style="transform-origin: 225.38px 183.797px;"><path d="M201.772,152.737s6.439,.379,9.659,3.788c3.22,3.409,39.204,37.499,37.499,41.855-1.704,4.356-24.557,16.477-24.557,16.477l-6.451-17.224,5.63-2.001-20.454-15.812-1.326-27.083Z" style="fill: rgb(64, 123, 255); transform-origin: 225.38px 183.797px;" id="eloo69gpckrz" class="animable"></path><g id="elkwmkvcd5iv"><path d="M201.772,152.737s6.439,.379,9.659,3.788c3.22,3.409,39.204,37.499,37.499,41.855-1.704,4.356-24.557,16.477-24.557,16.477l-6.451-17.224,5.63-2.001-20.454-15.812-1.326-27.083Z" style="fill: rgb(255, 255, 255); opacity: 0.6; transform-origin: 225.38px 183.797px;" class="animable"></path></g><g id="elpr0j5jc1qdl"><path d="M223.552,195.632s7.426-3.204,10.792-2.412c0,0-5.363-2.268-12.433,1.143l1.642,1.269Z" style="opacity: 0.2; transform-origin: 228.127px 194.057px;" class="animable"></path></g></g><g id="el6qcso14u5cf" class="animable" style="transform-origin: 171.513px 252.299px;"><path d="M144.287,215.95c-.815-6.88-5.754-12.722-12.644-14.143-2.989-.616-7.529-.849-9.648,1.818-1.075,1.352-1.235,3.174-.218,4.609,1.011,1.427,2.769,2.263,4.241,3.127,3.448,2.023,7.022,3.886,10.706,5.443,1.586,.67,3.375,1.211,5.087,.683,1.504-.464,2.555-1.625,3.149-3.047,.622-1.489,.751-3.106,.941-4.694,.244-2.04,.488-4.079,.732-6.119,.392-3.271,1.334-7.774-2.257-9.655-1.574-.825-3.503-.568-4.652,.833-1.038,1.266-1.155,3.003-1.021,4.571,.387,4.512,1.504,8.968,3.165,13.173,.701,1.775,3.604,1.002,2.893-.798-1.096-2.774-1.945-5.634-2.506-8.564-.259-1.355-.482-2.73-.577-4.107-.045-.655-.205-2.305,.634-2.59s1.497,.894,1.656,1.513c.368,1.432-.031,3.092-.203,4.53-.351,2.935-.599,5.906-1.067,8.825-.144,.897-.326,1.973-.927,2.697-.816,.982-2.149,.633-3.187,.272-2.709-.941-5.33-2.402-7.85-3.759-1.268-.683-2.522-1.393-3.759-2.13-.717-.426-2.82-1.285-2.906-2.283-.191-2.225,5.239-1.737,6.409-1.529,5.642,1,10.131,5.589,10.81,11.321,.096,.811,.621,1.491,1.5,1.5,.737,.008,1.595-.696,1.5-1.5h0Z" style="fill: rgb(64, 123, 255); transform-origin: 134.069px 205.602px;" id="el756b94d6gzx" class="animable"></path><path d="M145.153,206.172l-5.865,12.863s5.27,1.237,5.546,10.324c.235,7.769-1.542,96.656-2.063,122.276-.078,3.842,2.912,7.046,6.751,7.228,17.811,.848,71.722,1.767,72.388-3.344,.826-6.333-23.655-107.71-23.38-117.624,.275-9.913,9.087-56.451,9.087-56.451l-29.174-11.015s-9.334,39.321-33.291,35.741Z" style="fill: rgb(64, 123, 255); transform-origin: 180.609px 264.977px;" id="el3dfx4gtjhqr" class="animable"></path><path d="M179.022,172.118s3.855-19.694-5.518-26.472c0,0,1.053-1.293,3.195,0,0,0,9.326,6.015,5.614,27.464l-3.291-.992Z" style="fill: rgb(64, 123, 255); transform-origin: 178.345px 159.091px;" id="elvp4e5wecbd" class="animable"></path><path d="M204.536,181.275s2.756-19.079-1.758-28.159c0,0-.082-1.005,2.06,.288,0,0,5.828,7.414,2.116,28.863l-2.419-.992Z" style="fill: rgb(64, 123, 255); transform-origin: 205.484px 167.505px;" id="elxqex5wkl11" class="animable"></path><g id="elzdxfq9cp16j"><path d="M155.896,217.011s18.868,13.331,28.71,13.966c9.842,.635,10.879-5.123,10.326-4.579-1.193,1.171-39.426-8.292-39.036-9.387Z" style="opacity: 0.2; transform-origin: 175.472px 224.018px;" class="animable"></path></g><g id="elmtwfc5wguhn"><path d="M156.451,247.683c-.669,.395-1.029,32.352,26.841,32.305,17.886-.03,10.91-30.147,10.91-30.147l-37.752-2.158Z" style="opacity: 0.2; transform-origin: 175.903px 263.836px;" class="animable"></path></g><path d="M196.259,226.931c-.012,0-.023,0-.036-.002-14.485-2.045-28.82-5.56-42.606-10.447-.13-.046-.198-.189-.152-.319,.047-.13,.191-.197,.319-.152,13.755,4.876,28.057,8.383,42.51,10.423,.137,.02,.232,.146,.212,.283-.018,.125-.125,.215-.247,.215Z" style="fill: rgb(38, 50, 56); transform-origin: 174.98px 221.465px;" id="elh737yv8xunq" class="animable"></path></g><g id="elhy6svtd8q7f" class="animable" style="transform-origin: 199.842px 199.386px;"><path d="M226.841,235.444c-.103-3.538-.903-7.122-2.803-10.109l-2.033,2.91c1.383,2.296,.88,5.2,.558,7.861-.076,.629-.139,1.272-.011,1.893,.129,.621,.479,1.225,1.044,1.513,.938,.478,2.143-.105,2.688-1.005,.545-.901,.588-2.011,.557-3.063Z" style="fill: rgb(64, 123, 255); transform-origin: 224.427px 232.509px;" id="elenbzi4a34xa" class="animable"></path><g id="el92zqfxezs6"><g style="opacity: 0.8; transform-origin: 224.427px 232.509px;" class="animable"><path d="M226.841,235.444c-.103-3.538-.903-7.122-2.803-10.109l-2.033,2.91c1.383,2.296,.88,5.2,.558,7.861-.076,.629-.139,1.272-.011,1.893,.129,.621,.479,1.225,1.044,1.513,.938,.478,2.143-.105,2.688-1.005,.545-.901,.588-2.011,.557-3.063Z" style="fill: rgb(255, 255, 255); transform-origin: 224.427px 232.509px;" id="elytdxvwd9tsm" class="animable"></path></g></g><g id="elckywayn12uq" class="animable" style="transform-origin: 199.108px 194.055px;"><path d="M182.623,176.489s-3.23,6.931-.874,11.787c2.356,4.856,38.428,39.131,38.428,39.131l3.976-2.593s-17.993-50.141-21.984-52.745c-3.991-2.603-9.599-1.822-9.599-1.822,0,0,4.48-8.75,.661-10.752-3.82-2.002-3.892,4.032-7.865,4.349-3.973,.317-5.059-6.363-6.781-3.273-1.722,3.09,1.77,9.085,1.77,9.085,0,0-7.663-2.372-7.517,.999,.146,3.372,1.325,4.661,1.325,4.661,0,0,.254,.578,.478,2.952,.223,2.374,7.981-1.781,7.981-1.781Z" style="fill: rgb(64, 123, 255); transform-origin: 198.494px 193.248px;" id="elcur7tct5mr7" class="animable"></path><g id="ely5o187w9gwh"><path d="M182.623,176.489s-3.23,6.931-.874,11.787c2.356,4.856,38.428,39.131,38.428,39.131l3.976-2.593s-17.993-50.141-21.984-52.745c-3.991-2.603-9.599-1.822-9.599-1.822,0,0,4.48-8.75,.661-10.752-3.82-2.002-3.892,4.032-7.865,4.349-3.973,.317-5.059-6.363-6.781-3.273-1.722,3.09,1.77,9.085,1.77,9.085,0,0-7.663-2.372-7.517,.999,.146,3.372,1.325,4.661,1.325,4.661,0,0,.254,.578,.478,2.952,.223,2.374,7.981-1.781,7.981-1.781Z" style="fill: rgb(255, 255, 255); opacity: 0.8; transform-origin: 198.494px 193.248px;" class="animable"></path></g><path d="M217.341,223.423s-31.816-31.964-32.071-33.41c-.255-1.446,3.495-6.732,7.081-7.43,6.277-1.221,10.426-5.953,10.605-5.66,1.488,2.442,6.473,12.58,8.09,17.599,1.616,5.019,10.865,25.984,10.865,25.984l-4.57,2.918Z" style="fill: rgb(64, 123, 255); transform-origin: 203.584px 200.167px;" id="elii68735cqa" class="animable"></path><polygon points="216.01 223.423 222.173 219.368 225.381 227.018 221.594 229.021 216.01 223.423" style="fill: rgb(38, 50, 56); transform-origin: 220.695px 224.194px;" id="elrkppmbv395" class="animable"></polygon><path d="M182.624,176.739c-.083,0-.164-.042-.212-.117-.073-.117-.038-.271,.079-.345l9.947-6.241c.117-.072,.271-.038,.345,.079,.073,.117,.038,.271-.079,.345l-9.947,6.241c-.041,.026-.087,.038-.133,.038Z" style="fill: rgb(38, 50, 56); transform-origin: 187.597px 173.369px;" id="el4uou10aed56" class="animable"></path><g id="elzis7us3au5"><path d="M187.762,173.369c-1.115,3.367-.102,6.08,.906,8.468" style="opacity: 0.2; transform-origin: 187.971px 177.603px;" class="animable"></path></g><g id="eldbcdrriuo5p"><path d="M178.655,170.784c2.477,2.539,5.351,2.887,7.936,3.091" style="opacity: 0.2; transform-origin: 182.623px 172.329px;" class="animable"></path></g><g id="el8lsay41hq59"><path d="M190.216,167.996c.001,2.573-1.348,4.185-2.618,5.576" style="opacity: 0.2; transform-origin: 188.907px 170.784px;" class="animable"></path></g><g id="eladr1cstagsh"><path d="M200.256,184.074s5.368,12.467,7.125,12.282,2.958,.456,1.941-2.776-5.7-13.632-7.241-13.101c-1.541,.531-3.13,.696-1.825,3.596Z" style="fill: rgb(255, 255, 255); opacity: 0.3; transform-origin: 204.734px 188.409px;" class="animable"></path></g></g><g id="elgathkq23nai" class="animable" style="transform-origin: 213.021px 204.696px;"><path d="M204.36,206.999s-1.875,.3-1.446-1.989,3.734-7.737,5.021-8.023c1.287-.286,6.223,1.151,6.223,1.151l5.347,2.787s3.722,6.9,3.686,10.777c-2.8,1.928-4.851-.227-7.481-2.771,0,0-5.057,3.932-6.201,3.216-1.144-.715-.847-1.084-.847-1.084,0,0-2.469,.032-2.325-1.828,0,0-1.127,.565-1.977-.357-.646-.7,0-1.88,0-1.88Z" style="fill: rgb(253, 187, 181); transform-origin: 213.021px 204.696px;" id="elxzvkj9fenqa" class="animable"></path><path d="M204.36,207.125c-.024,0-.047-.007-.069-.021-.058-.038-.074-.116-.036-.173,.165-.25,4.048-6.147,4.764-6.606,.727-.468,2.854-.29,2.943-.282,.069,.006,.12,.066,.114,.135-.005,.068-.062,.124-.135,.114-.021-.002-2.131-.179-2.787,.243-.557,.358-3.574,4.838-4.689,6.534-.024,.036-.064,.056-.104,.056Z" style="fill: rgb(255, 131, 131); transform-origin: 208.155px 203.564px;" id="el457nfkq5pe7" class="animable"></path><path d="M206.337,209.361c-.025,0-.05-.007-.072-.023-.056-.04-.07-.118-.03-.174,.165-.233,4.047-5.708,4.761-6.166,.726-.467,2.527-.366,2.605-.362,.069,.004,.122,.063,.118,.132s-.073,.117-.132,.118c-.02-.002-1.797-.101-2.456,.322-.558,.359-3.576,4.525-4.691,6.101-.024,.034-.063,.053-.102,.053Z" style="fill: rgb(255, 131, 131); transform-origin: 209.966px 205.993px;" id="elq7b24kd52na" class="animable"></path><path d="M208.605,211.197c-.028,0-.056-.009-.079-.028-.054-.044-.062-.123-.018-.176,.152-.186,3.733-4.546,4.442-5.002,.716-.46,2.66-.743,2.742-.755,.064-.013,.131,.038,.141,.106s-.038,.131-.106,.141c-.02,.003-1.972,.287-2.643,.718-.541,.348-3.104,3.39-4.384,4.95-.025,.03-.061,.046-.097,.046Z" style="fill: rgb(255, 131, 131); transform-origin: 212.157px 208.215px;" id="el67ktx451syp" class="animable"></path></g><g id="elra1u5rpezxg" class="animable" style="transform-origin: 190.485px 198.865px;"><path d="M201.632,201.616s1.875,.3,1.445-1.989c-.429-2.288-3.734-7.737-5.021-8.023s-8.912-.725-8.912-.725h-7.366s-2.989,4.799-3.949,8.661c2.799,1.928,9.822,6.553,12.452,4.009,0,0,5.057,3.931,6.201,3.216,1.144-.715,.847-1.084,.847-1.084,0,0,2.469,.032,2.326-1.828,0,0,1.127,.565,1.977-.357,.646-.7,0-1.88,0-1.88Z" style="fill: rgb(253, 187, 181); transform-origin: 190.485px 198.865px;" id="eljl5mfdedr7g" class="animable"></path><path d="M201.632,201.741c-.041,0-.081-.02-.104-.056-1.116-1.696-4.133-6.176-4.689-6.534-.658-.423-2.766-.246-2.788-.243-.07,.014-.129-.045-.135-.114-.006-.069,.045-.129,.114-.135,.09-.008,2.215-.186,2.944,.282,.715,.459,4.598,6.356,4.763,6.606,.038,.058,.022,.135-.036,.173-.021,.014-.045,.021-.069,.021Z" style="fill: rgb(255, 131, 131); transform-origin: 197.837px 198.18px;" id="el79olejykoov" class="animable"></path><path d="M199.655,203.978c-.039,0-.078-.019-.102-.053-1.116-1.575-4.134-5.742-4.691-6.101-.66-.423-2.438-.323-2.456-.322-.076-.004-.128-.049-.132-.118-.004-.069,.049-.128,.118-.132,.076-.004,1.878-.105,2.605,.362,.713,.458,4.596,5.933,4.761,6.166,.04,.056,.026,.134-.03,.174-.022,.016-.047,.023-.072,.023Z" style="fill: rgb(255, 131, 131); transform-origin: 196.027px 200.609px;" id="eltl8ybpy00u" class="animable"></path><path d="M197.387,205.813c-.036,0-.072-.016-.097-.046-1.279-1.56-3.842-4.603-4.384-4.95-.67-.431-2.623-.715-2.643-.718-.068-.01-.116-.073-.106-.141,.009-.069,.072-.121,.141-.106,.083,.012,2.027,.294,2.742,.755,.71,.456,4.29,4.816,4.442,5.002,.044,.053,.036,.132-.018,.176-.023,.019-.051,.028-.079,.028Z" style="fill: rgb(255, 131, 131); transform-origin: 193.833px 202.831px;" id="elnb3w82hpmlh" class="animable"></path></g></g><g id="el6kn5s0hmcam" class="animable" style="transform-origin: 152.972px 173.759px;"><path d="M177.86,151.814s-2.555-7.884-9.319-5.825-42.358,31.315-44.705,37.058c-1.957,4.79-1.765,9.706,6.176,11.765s46.764,7.059,46.764,7.059l6.368-14.084-31.463-6.697s25.785-8.925,26.764-16.866c.979-7.941-.584-12.41-.584-12.41Z" style="fill: rgb(64, 123, 255); transform-origin: 152.972px 173.759px;" id="el1z8hfismja1" class="animable"></path><g id="el3eeq686hy8l"><path d="M177.86,151.814s-2.555-7.884-9.319-5.825-42.358,31.315-44.705,37.058c-1.957,4.79-1.765,9.706,6.176,11.765s46.764,7.059,46.764,7.059l6.368-14.084-31.463-6.697s25.785-8.925,26.764-16.866c.979-7.941-.584-12.41-.584-12.41Z" style="fill: rgb(255, 255, 255); opacity: 0.6; transform-origin: 152.972px 173.759px;" class="animable"></path></g><g id="elb7nqidao4v"><path d="M151.68,181.089s-7.764-1.356-11.121,1.886c0,0,3.455-5.853,13.141-2.624l-2.02,.738Z" style="opacity: 0.2; transform-origin: 147.129px 181.177px;" class="animable"></path></g></g></g></g><g id="freepik--Cake--inject-73" class="animable" style="transform-origin: 247.321px 342.348px;"><g id="el32qwxnldvc7" class="animable" style="transform-origin: 247.321px 342.348px;"><rect x="212.151" y="305.977" width="8.945" height="151.312" style="fill: rgb(162, 78, 63); transform-origin: 216.624px 381.633px;" id="eljps1ve1nspo" class="animable"></rect><g id="elduufdeueoue"><rect x="212.151" y="305.977" width="8.945" height="151.312" style="opacity: 0.2; transform-origin: 216.624px 381.633px;" class="animable"></rect></g><rect x="274.609" y="305.977" width="8.945" height="151.312" style="fill: rgb(162, 78, 63); transform-origin: 279.082px 381.633px;" id="elex28xy8vv9f" class="animable"></rect><g id="elyxknmay4gt"><rect x="274.609" y="305.977" width="8.945" height="151.312" style="opacity: 0.2; transform-origin: 279.082px 381.633px;" class="animable"></rect></g><g id="el63eq9ekops" class="animable" style="transform-origin: 244.628px 270.923px;"><g id="elll8eyo3s8ze" class="animable" style="transform-origin: 243.82px 280.734px;"><rect x="214.799" y="268.026" width="58.13" height="28.383" style="fill: rgb(64, 123, 255); transform-origin: 243.864px 282.218px;" id="el1158u70v3r8" class="animable"></rect><g id="el1wt0hnvlbk2"><rect x="214.799" y="286.45" width="58.13" height="5.245" style="opacity: 0.2; transform-origin: 243.864px 289.072px;" class="animable"></rect></g><g id="ellkm6x1aqilb"><g style="opacity: 0.2; transform-origin: 243.863px 275.833px;" class="animable"><path d="M214.799,282.611c.951,.086,1.911-.708,2.552-1.507,.751-.935,1.582-2.053,2.78-2.082,1.406-.033,2.43,1.483,3.828,1.631,1.845,.195,2.97-1.907,4.461-3.013,1.515-1.124,3.533-1.22,5.419-1.271,2.075-.057,4.611,.149,5.512,2.02,.408,.847,.35,1.832,.449,2.768,.099,.935,.457,1.966,1.318,2.345,1.135,.5,2.429-.453,2.975-1.567,.546-1.113,.658-2.403,1.225-3.506,.567-1.103,1.913-2.008,3.017-1.443,1.034,.529,1.203,1.972,2.067,2.75,1.147,1.033,3.004,.496,4.254-.41,1.25-.905,2.336-2.15,3.831-2.536,1.9-.492,3.816,.543,5.586,1.391,1.77,.847,3.984,1.503,5.594,.381,.627-.437,1.086-1.106,1.772-1.443,.464-.228,1.106-.18,1.489,.11v-9.201h-58.13v14.585Z" id="elahxutipd62d" class="animable" style="transform-origin: 243.863px 275.833px;"></path></g></g><path d="M274.511,267.644c.012,2.726-.01,6.856-.233,8.604-.058,.458-.453,.675-.85,.438-.368-.22-.15-.685-.175-1.064-.05-.763-1.126-1.025-1.812-.689-.686,.337-1.145,1.006-1.772,1.443-1.61,1.122-3.824,.466-5.594-.381-1.77-.847-3.686-1.883-5.586-1.391-1.494,.387-2.58,1.631-3.831,2.536-1.25,.905-3.107,1.443-4.254,.41-.863-.777-1.032-2.22-2.067-2.75-1.104-.565-2.45,.341-3.017,1.443-.567,1.103-.679,2.392-1.225,3.506-.545,1.114-1.84,2.066-2.975,1.567-.861-.379-1.22-1.409-1.318-2.345-.099-.935-.04-1.921-.449-2.768-.901-1.87-3.437-2.076-5.512-2.02-1.886,.052-3.904,.147-5.419,1.271-1.49,1.106-2.615,3.208-4.461,3.013-1.398-.148-2.422-1.664-3.828-1.631-1.199,.029-2.029,1.147-2.78,2.082-.751,.935-1.937,1.864-3.036,1.383-1.088-.476-1.22-1.941-1.186-3.129,.08-2.814,.16-5.627,.239-8.441,.007-.256,.015-.643,.022-1.065,.022-1.289,1.071-2.325,2.36-2.331l56.155-.275c1.432-.007,2.598,1.149,2.604,2.581Z" style="fill: rgb(64, 123, 255); transform-origin: 243.82px 273.256px;" id="elr9tysbb8ph" class="animable"></path><g id="elw614tc68bt"><g style="opacity: 0.8; transform-origin: 243.82px 273.256px;" class="animable"><path d="M274.511,267.644c.012,2.726-.01,6.856-.233,8.604-.058,.458-.453,.675-.85,.438-.368-.22-.15-.685-.175-1.064-.05-.763-1.126-1.025-1.812-.689-.686,.337-1.145,1.006-1.772,1.443-1.61,1.122-3.824,.466-5.594-.381-1.77-.847-3.686-1.883-5.586-1.391-1.494,.387-2.58,1.631-3.831,2.536-1.25,.905-3.107,1.443-4.254,.41-.863-.777-1.032-2.22-2.067-2.75-1.104-.565-2.45,.341-3.017,1.443-.567,1.103-.679,2.392-1.225,3.506-.545,1.114-1.84,2.066-2.975,1.567-.861-.379-1.22-1.409-1.318-2.345-.099-.935-.04-1.921-.449-2.768-.901-1.87-3.437-2.076-5.512-2.02-1.886,.052-3.904,.147-5.419,1.271-1.49,1.106-2.615,3.208-4.461,3.013-1.398-.148-2.422-1.664-3.828-1.631-1.199,.029-2.029,1.147-2.78,2.082-.751,.935-1.937,1.864-3.036,1.383-1.088-.476-1.22-1.941-1.186-3.129,.08-2.814,.16-5.627,.239-8.441,.007-.256,.015-.643,.022-1.065,.022-1.289,1.071-2.325,2.36-2.331l56.155-.275c1.432-.007,2.598,1.149,2.604,2.581Z" style="fill: rgb(255, 255, 255); transform-origin: 243.82px 273.256px;" id="elvlurdzirl1q" class="animable"></path></g></g><path d="M216.623,266.476c14.984-.672,30.086-.672,45.074,0-14.989,.672-30.088,.672-45.074,0h0Z" style="fill: rgb(255, 255, 255); transform-origin: 239.16px 266.476px;" id="elxlc1p9wbnoj" class="animable"></path><g id="elpwuipni3qzc"><path d="M256.711,283.207c0,.547-.443,.99-.99,.99s-.99-.443-.99-.99,.443-.99,.99-.99,.99,.443,.99,.99Z" style="opacity: 0.2; transform-origin: 255.721px 283.207px;" class="animable"></path></g><g id="el5rpoiq85ghh"><path d="M230.102,283.836c0,.547-.443,.99-.99,.99s-.99-.443-.99-.99,.443-.99,.99-.99,.99,.443,.99,.99Z" style="opacity: 0.2; transform-origin: 229.112px 283.836px;" class="animable"></path></g><g id="ell5ons5svg2"><circle cx="247.798" cy="293.974" r=".495" style="opacity: 0.2; transform-origin: 247.798px 293.974px;" class="animable"></circle></g><g id="elo1whj32fr8m"><circle cx="269.054" cy="283.952" r=".495" style="opacity: 0.2; transform-origin: 269.054px 283.952px;" class="animable"></circle></g><g id="elu0luxofc04a"><path d="M226.056,285.075c0,.273-.222,.495-.495,.495s-.495-.222-.495-.495,.222-.495,.495-.495,.495,.222,.495,.495Z" style="opacity: 0.2; transform-origin: 225.561px 285.075px;" class="animable"></path></g></g><g id="eltbn7lozr33p" class="animable" style="transform-origin: 243.862px 253.552px;"><g id="elpiyjt2da8qq"><rect x="221.182" y="243.141" width="45.205" height="22.072" style="fill: rgb(64, 123, 255); transform-origin: 243.784px 254.177px; transform: rotate(180deg);" class="animable"></rect></g><g id="elpo3j58u2kf"><g style="opacity: 0.2; transform-origin: 243.786px 249.84px;" class="animable"><path d="M266.388,244.864c-.367-.207-.789-.329-1.24-.334l-41.263-.477c-.918,0-1.935-.006-2.702,.804v10.771c.215-.02,.46-.06,.738-.101,2.096-.312,3.291-3.498,5.349-2.989,1.085,.269,1.776,1.545,2.892,1.599,.786,.038,1.459-.567,1.898-1.22,.439-.653,.754-1.404,1.327-1.945,1.214-1.146,3.205-.969,4.689-.204,1.484,.765,2.67,1.998,4.07,2.907s3.228,1.479,4.727,.744c1.91-.936,2.847-3.742,4.975-3.729,1.548,.01,2.915,1.646,4.391,1.18,.622-.197,1.079-.737,1.679-.994,1.223-.524,2.626,.271,3.514,1.261,.889,.99,1.546,2.219,2.646,2.968,.656,.447,1.563,.618,2.309,.431v-10.673Z" id="el1djd7wg8ua3" class="animable" style="transform-origin: 243.786px 249.84px;"></path></g></g><g id="el0b0dn4j510w"><rect x="221.182" y="257.469" width="45.205" height="4.079" style="opacity: 0.2; transform-origin: 243.784px 259.508px; transform: rotate(180deg);" class="animable"></rect></g><g id="elm0sy6ks3uak" class="animable" style="transform-origin: 243.862px 247.685px;"><path d="M265.147,242.367c1.409,.016,2.545,1.156,2.558,2.565,.018,2.036,.036,4.072,.054,6.108,.004,.487,.005,.993-.204,1.432-.57,1.202-2.378,1.22-3.478,.471-1.1-.749-1.757-1.978-2.646-2.968-.889-.99-2.291-1.785-3.514-1.261-.6,.257-1.057,.797-1.679,.994-1.476,.466-2.843-1.17-4.391-1.18-2.127-.014-3.065,2.792-4.975,3.729-1.499,.735-3.327,.165-4.727-.744s-2.586-2.143-4.07-2.907c-1.484-.765-3.475-.941-4.689,.204-.572,.54-.888,1.291-1.327,1.945-.439,.653-1.112,1.259-1.898,1.22-1.116-.054-1.807-1.33-2.892-1.599-2.057-.509-3.252,2.677-5.349,2.989-1.1,.164-1.696,.315-1.87-.784-.161-1.018-.042-3.107-.067-4.386-.125-6.331,2.084-6.304,3.9-6.304l41.263,.477Z" style="fill: rgb(64, 123, 255); transform-origin: 243.862px 247.685px;" id="elhaq3mu2rndg" class="animable"></path><g id="elcz1rn8u0kk"><g style="opacity: 0.8; transform-origin: 243.862px 247.685px;" class="animable"><path d="M265.147,242.367c1.409,.016,2.545,1.156,2.558,2.565,.018,2.036,.036,4.072,.054,6.108,.004,.487,.005,.993-.204,1.432-.57,1.202-2.378,1.22-3.478,.471-1.1-.749-1.757-1.978-2.646-2.968-.889-.99-2.291-1.785-3.514-1.261-.6,.257-1.057,.797-1.679,.994-1.476,.466-2.843-1.17-4.391-1.18-2.127-.014-3.065,2.792-4.975,3.729-1.499,.735-3.327,.165-4.727-.744s-2.586-2.143-4.07-2.907c-1.484-.765-3.475-.941-4.689,.204-.572,.54-.888,1.291-1.327,1.945-.439,.653-1.112,1.259-1.898,1.22-1.116-.054-1.807-1.33-2.892-1.599-2.057-.509-3.252,2.677-5.349,2.989-1.1,.164-1.696,.315-1.87-.784-.161-1.018-.042-3.107-.067-4.386-.125-6.331,2.084-6.304,3.9-6.304l41.263,.477Z" style="fill: rgb(255, 255, 255); transform-origin: 243.862px 247.685px;" id="elln1npaosng" class="animable"></path></g></g></g><path d="M222.992,243.38c14.018-.549,28.146-.414,42.155,.401-14.024,.549-28.147,.414-42.155-.401h0Z" style="fill: rgb(255, 255, 255); transform-origin: 244.07px 243.581px;" id="elkc8vets8tee" class="animable"></path><g id="el47zxebqmu2i"><path d="M252.928,254.838c0,.365-.296,.66-.661,.66s-.661-.296-.661-.66,.296-.66,.661-.66,.661,.296,.661,.66Z" style="opacity: 0.1; transform-origin: 252.267px 254.838px;" class="animable"></path></g><g id="el7gcvm21odn"><path d="M251.426,256.007c0,.182-.148,.33-.33,.33s-.33-.148-.33-.33,.148-.33,.33-.33,.33,.148,.33,.33Z" style="opacity: 0.1; transform-origin: 251.096px 256.007px;" class="animable"></path></g><g id="elxah503b02z"><path d="M239.073,256.202c0,.182-.148,.33-.33,.33s-.33-.148-.33-.33,.148-.33,.33-.33,.33,.148,.33,.33Z" style="opacity: 0.1; transform-origin: 238.743px 256.202px;" class="animable"></path></g><g id="el33dx6gj3jsk"><path d="M262.901,263.163c0,.182-.148,.33-.33,.33s-.33-.148-.33-.33,.148-.33,.33-.33,.33,.148,.33,.33Z" style="opacity: 0.1; transform-origin: 262.571px 263.163px;" class="animable"></path></g><g id="el72m4xnkyz2p"><path d="M250.274,263.163c0,.547-.443,.99-.99,.99s-.99-.443-.99-.99,.443-.99,.99-.99,.99,.443,.99,.99Z" style="opacity: 0.2; transform-origin: 249.284px 263.163px;" class="animable"></path></g><g id="el4drag1sok3x"><path d="M236.967,253.921c0,.547-.443,.99-.99,.99s-.99-.443-.99-.99,.443-.99,.99-.99,.99,.443,.99,.99Z" style="opacity: 0.2; transform-origin: 235.977px 253.921px;" class="animable"></path></g><g id="el3ghbedvc2ap"><path d="M234.011,255.439c.239,.239,.239,.627,0,.867-.239,.239-.627,.239-.867,0-.239-.239-.239-.627,0-.867,.239-.239,.627-.239,.867,0Z" style="opacity: 0.1; transform-origin: 233.577px 255.873px;" class="animable"></path></g></g><path d="M203.24,296.337c0,1.548,1.255,2.803,2.803,2.803h2.087l1.013,.815h71.02l1.013-.815h2.038c1.548,0,2.803-1.255,2.803-2.803h-82.777Z" style="fill: rgb(38, 50, 56); transform-origin: 244.628px 298.146px;" id="el66bw7ytv6ve" class="animable"></path></g><g id="elucp2lqw0abp" class="animable" style="transform-origin: 243.639px 234.94px;"><path d="M232.974,242.472s-.215-3.871,2.781-4.991c0,0-1.608-2.364,.756-4.729,2.364-2.364,3.982-2.364,2.987-4.604-.996-2.24,7.716,.871,8.462,5.724l-.871,2.477s6.347,.785,7.218,6.123h-21.333Z" style="fill: rgb(64, 123, 255); transform-origin: 243.639px 234.94px;" id="elak3eqkv0q7t" class="animable"></path><g id="elavu64hhka2e"><path d="M232.974,242.472s-.215-3.871,2.781-4.991c0,0-1.608-2.364,.756-4.729,2.364-2.364,3.982-2.364,2.987-4.604-.996-2.24,7.716,.871,8.462,5.724l-.871,2.477s6.347,.785,7.218,6.123h-21.333Z" style="fill: rgb(255, 255, 255); opacity: 0.8; transform-origin: 243.639px 234.94px;" class="animable"></path></g></g><g id="el3lsjch497u4" class="animable" style="transform-origin: 258.282px 238.707px;"><path d="M252.95,242.472s-.108-1.935,1.39-2.495c0,0-.804-1.182,.378-2.364,1.182-1.182,1.991-1.182,1.493-2.302-.498-1.12,3.858,.435,4.231,2.862l-.435,1.238s3.173,.393,3.609,3.062h-10.666Z" style="fill: rgb(64, 123, 255); transform-origin: 258.282px 238.707px;" id="elhlivvg6ynja" class="animable"></path><g id="elgaaw8eklgs"><path d="M252.95,242.472s-.108-1.935,1.39-2.495c0,0-.804-1.182,.378-2.364,1.182-1.182,1.991-1.182,1.493-2.302-.498-1.12,3.858,.435,4.231,2.862l-.435,1.238s3.173,.393,3.609,3.062h-10.666Z" style="fill: rgb(255, 255, 255); opacity: 0.8; transform-origin: 258.282px 238.707px;" class="animable"></path></g></g><rect x="179.308" y="299.955" width="136.025" height="11.259" style="fill: rgb(162, 78, 63); transform-origin: 247.32px 305.584px;" id="elnw01m9xn0je" class="animable"></rect><rect x="192.008" y="305.977" width="8.945" height="151.312" style="fill: rgb(162, 78, 63); transform-origin: 196.481px 381.633px;" id="elv66zqyw0px" class="animable"></rect><rect x="294.109" y="305.977" width="8.945" height="151.312" style="fill: rgb(162, 78, 63); transform-origin: 298.582px 381.633px;" id="eligel68m9fl" class="animable"></rect><rect x="199.946" y="319.588" width="96.205" height="6.198" style="fill: rgb(162, 78, 63); transform-origin: 248.048px 322.687px;" id="el3zfnijay5cw" class="animable"></rect><g id="elih1fq9rx2lr"><rect x="192.008" y="311.214" width="8.945" height="4.016" style="opacity: 0.2; transform-origin: 196.481px 313.222px;" class="animable"></rect></g><g id="eljxliy4ijk9"><rect x="294.109" y="311.214" width="8.945" height="4.016" style="opacity: 0.2; transform-origin: 298.582px 313.222px;" class="animable"></rect></g></g></g><defs>     <filter id="active" height="200%">         <feMorphology in="SourceAlpha" result="DILATED" operator="dilate" radius="2"></feMorphology>                <feFlood flood-color="#32DFEC" flood-opacity="1" result="PINK"></feFlood>        <feComposite in="PINK" in2="DILATED" operator="in" result="OUTLINE"></feComposite>        <feMerge>            <feMergeNode in="OUTLINE"></feMergeNode>            <feMergeNode in="SourceGraphic"></feMergeNode>        </feMerge>    </filter>    <filter id="hover" height="200%">        <feMorphology in="SourceAlpha" result="DILATED" operator="dilate" radius="2"></feMorphology>                <feFlood flood-color="#ff0000" flood-opacity="0.5" result="PINK"></feFlood>        <feComposite in="PINK" in2="DILATED" operator="in" result="OUTLINE"></feComposite>        <feMerge>            <feMergeNode in="OUTLINE"></feMergeNode>            <feMergeNode in="SourceGraphic"></feMergeNode>        </feMerge>            <feColorMatrix type="matrix" values="0   0   0   0   0                0   1   0   0   0                0   0   0   0   0                0   0   0   1   0 "></feColorMatrix>    </filter></defs></svg>